<svg xmlns="http://www.w3.org/2000/svg" width="512" height="512" viewBox="0 0 512 512">
<g>
<path d="M 172.00 510.90 C112.46,504.20 59.94,470.91 28.34,419.83 C10.56,391.09 0.00,353.89 0.00,320.00 C0.00,293.40 6.81,263.36 18.51,238.32 C36.86,199.06 71.03,164.87 110.25,146.54 C155.53,125.38 207.84,122.48 253.75,138.57 L 261.50 141.28 L 273.06 129.67 C287.29,115.38 292.46,112.51 304.00,112.51 C315.46,112.51 320.42,115.28 335.33,129.93 L 347.50 141.91 L 370.00 119.53 C394.24,95.42 395.07,94.85 403.70,96.47 C408.62,97.40 414.60,103.38 415.53,108.30 C417.15,116.93 416.58,117.76 392.47,142.00 L 370.09 164.50 L 382.07 176.67 C396.72,191.58 399.49,196.54 399.49,208.00 C399.49,219.54 396.62,224.71 382.33,238.94 L 370.72 250.50 L 373.31 258.00 C389.51,304.91 386.72,356.25 365.49,401.68 C347.14,440.94 312.97,475.13 273.75,493.46 C242.13,508.23 204.97,514.60 172.00,510.90 ZM 88.76 333.33 C94.13,329.32 95.27,326.68 96.08,316.30 C98.01,291.64 106.49,271.38 121.82,254.82 C138.81,236.48 161.00,226.22 188.30,224.08 C198.74,223.26 201.31,222.14 205.44,216.61 C208.33,212.74 208.33,203.26 205.44,199.39 C200.87,193.27 198.78,192.49 187.16,192.60 C136.40,193.05 87.48,229.36 71.04,278.78 C65.98,294.00 62.85,315.06 64.41,323.37 C65.22,327.68 69.29,332.76 73.45,334.65 C77.50,336.49 85.45,335.80 88.76,333.33 ZM 456.50 190.44 C452.34,188.30 435.35,171.25 433.51,167.38 C427.65,155.03 438.86,141.46 451.99,145.00 C455.58,145.96 458.42,148.20 467.11,156.89 C475.80,165.58 478.04,168.42 479.00,172.01 C482.54,185.14 468.52,196.63 456.50,190.44 ZM 460.48 128.12 C458.82,127.69 456.25,126.56 454.78,125.59 C451.61,123.51 448.00,116.55 448.00,112.50 C448.00,107.69 451.62,101.58 455.89,99.18 C459.53,97.14 461.06,97.00 480.00,97.00 C498.94,97.00 500.47,97.14 504.11,99.18 C508.38,101.58 512.00,107.69 512.00,112.50 C512.00,117.09 508.24,123.69 504.18,126.21 C500.73,128.36 499.36,128.51 482.00,128.69 C471.83,128.80 462.14,128.54 460.48,128.12 ZM 344.50 78.44 C340.34,76.30 323.35,59.25 321.51,55.38 C315.65,43.03 326.86,29.46 339.99,33.00 C343.58,33.96 346.42,36.20 355.11,44.89 C363.80,53.58 366.04,56.42 367.00,60.01 C370.54,73.14 356.52,84.63 344.50,78.44 ZM 441.42 78.58 C434.75,75.68 431.01,67.41 433.00,59.96 C434.03,56.11 436.74,52.95 452.85,36.85 C468.95,20.74 472.11,18.03 475.96,17.00 C489.17,13.47 500.36,27.01 494.48,39.41 C492.47,43.63 458.32,77.55 454.68,78.93 C450.90,80.37 445.18,80.22 441.42,78.58 ZM 393.45 62.65 C389.41,60.82 385.23,55.72 384.48,51.72 C384.14,49.95 384.01,39.87 384.19,29.32 C384.53,8.33 384.75,7.52 391.39,2.56 C395.26,-0.33 404.74,-0.33 408.61,2.56 C415.43,7.65 415.50,7.95 415.50,32.00 C415.50,52.51 415.37,54.02 413.44,56.61 C412.30,58.13 410.20,60.25 408.76,61.33 C405.45,63.80 397.50,64.49 393.45,62.65 Z" fill="rgba(0,0,0,1)"/>
</g>
</svg>