<?xml version="1.0" encoding="UTF-8"?>
<svg version="1.1" xmlns="http://www.w3.org/2000/svg" width="512" height="512">
<path d="M0 0 C5.59137949 3.37887664 10.95614309 9.07457238 12.5625 15.5 C14.20290705 23.70203527 13.28397225 30.15344994 8.8125 37.3125 C6.12009549 41.07791658 3.68212056 43.39441616 -0.4375 45.5 C-1.4275 45.5 -2.4175 45.5 -3.4375 45.5 C-2.62493234 50.25523753 -2.34577551 51.85560004 1.6953125 54.72265625 C3.01303505 55.36340681 4.34503629 55.97534993 5.6875 56.5625 C6.75460205 57.05882935 6.75460205 57.05882935 7.84326172 57.56518555 C10.06865376 58.5809338 12.30893645 59.54853916 14.5625 60.5 C15.2534375 60.79326172 15.944375 61.08652344 16.65625 61.38867188 C54.93951106 77.32776037 92.11191684 69.91078967 131.07424927 61.39648438 C199.03507542 46.58998745 261.64905785 51.52885262 327.5625 73.5 C327.5625 144.78 327.5625 216.06 327.5625 289.5 C320.83624825 288.37895804 320.83624825 288.37895804 317.515625 286.93359375 C316.76716309 286.61696777 316.01870117 286.3003418 315.24755859 285.97412109 C314.44398926 285.63203613 313.64041992 285.28995117 312.8125 284.9375 C258.02805237 262.43327883 200.16268563 256.3398781 142.30825806 267.90185547 C98.15071524 276.71679083 45.73597081 286.55640991 4.5625 262.5 C2.2525 260.85 -0.0575 259.2 -2.4375 257.5 C-2.7675 340.99 -3.0975 424.48 -3.4375 510.5 C-9.0475 510.5 -14.6575 510.5 -20.4375 510.5 C-20.4375 357.05 -20.4375 203.6 -20.4375 45.5 C-22.4175 44.84 -24.3975 44.18 -26.4375 43.5 C-31.84624061 38.93145211 -35.88415019 33.0443853 -36.75 25.93359375 C-37.10798325 17.89015752 -35.2659303 11.84945693 -30.0625 5.6875 C-21.56729147 -1.39184044 -10.74815301 -4.8028164 0 0 Z " fill="#E21B1B" transform="translate(110.4375,1.5)"/>
<path d="M0 0 C5.59137949 3.37887664 10.95614309 9.07457238 12.5625 15.5 C14.20290705 23.70203527 13.28397225 30.15344994 8.8125 37.3125 C6.12009549 41.07791658 3.68212056 43.39441616 -0.4375 45.5 C-1.4275 45.5 -2.4175 45.5 -3.4375 45.5 C-3.4375 198.95 -3.4375 352.4 -3.4375 510.5 C-9.0475 510.5 -14.6575 510.5 -20.4375 510.5 C-20.4375 357.05 -20.4375 203.6 -20.4375 45.5 C-22.4175 44.84 -24.3975 44.18 -26.4375 43.5 C-31.84624061 38.93145211 -35.88415019 33.0443853 -36.75 25.93359375 C-37.10798325 17.89015752 -35.2659303 11.84945693 -30.0625 5.6875 C-21.56729147 -1.39184044 -10.74815301 -4.8028164 0 0 Z " fill="#999898" transform="translate(110.4375,1.5)"/>
<path d="M0 0 C5.59137949 3.37887664 10.95614309 9.07457238 12.5625 15.5 C14.20290705 23.70203527 13.28397225 30.15344994 8.8125 37.3125 C5.73504137 41.60297152 2.53473231 44.74933382 -2.7265625 46.078125 C-10.422684 47.27579232 -19.66969285 47.96229043 -26.4375 43.5 C-31.79575081 38.69381139 -35.86047028 33.23885658 -36.75 25.93359375 C-37.10798325 17.89015752 -35.2659303 11.84945693 -30.0625 5.6875 C-21.56729147 -1.39184044 -10.74815301 -4.8028164 0 0 Z " fill="#666666" transform="translate(110.4375,1.5)"/>
</svg>
